<?xml version="1.0" standalone="no"?>
<svg xmlns:xlink="http://www.w3.org/1999/xlink" id="wave" style="transform:rotate(180deg); transition: 0.3s" viewBox="0 0 1440 100" version="1.1" xmlns="http://www.w3.org/2000/svg"><defs><linearGradient id="sw-gradient-0" x1="0" x2="0" y1="1" y2="0"><stop stop-color="rgba(255, 249, 234, 1)" offset="0%"/><stop stop-color="rgba(255, 249, 234, 1)" offset="100%"/></linearGradient></defs><path style="transform:translate(0, 0px); opacity:1" fill="url(#sw-gradient-0)" d="M0,20L110.8,90L221.5,60L332.3,40L443.1,0L553.8,10L664.6,60L775.4,50L886.2,30L996.9,30L1107.7,60L1218.5,40L1329.2,0L1440,30L1550.8,90L1661.5,0L1772.3,40L1883.1,80L1993.8,40L2104.6,30L2215.4,20L2326.2,70L2436.9,30L2547.7,80L2658.5,30L2658.5,100L2547.7,100L2436.9,100L2326.2,100L2215.4,100L2104.6,100L1993.8,100L1883.1,100L1772.3,100L1661.5,100L1550.8,100L1440,100L1329.2,100L1218.5,100L1107.7,100L996.9,100L886.2,100L775.4,100L664.6,100L553.8,100L443.1,100L332.3,100L221.5,100L110.8,100L0,100Z"/></svg>